<?xml version="1.0" encoding="utf-8"?>
<!-- Generator: Adobe Illustrator 19.0.1, SVG Export Plug-In . SVG Version: 6.00 Build 0)  -->
<svg version="1.1" id="Layer_1" xmlns="http://www.w3.org/2000/svg" xmlns:xlink="http://www.w3.org/1999/xlink" x="0px" y="0px"
	 viewBox="1147.5 -20 400 400" style="enable-background:new 1147.5 -20 400 400;" xml:space="preserve">
<style type="text/css">
	.st0{fill:#353535;}
	.st1{fill:#0ACF83;}
	.st2{fill:#A259FF;}
	.st3{fill:#F24E1E;}
	.st4{fill:#FF7262;}
	.st5{fill:#1ABCFE;}
</style>
<path class="st0" d="M1487,371.5h-279c-28.6,0-52-23.4-52-52v-279c0-28.6,23.4-52,52-52h279c28.6,0,52,23.4,52,52v279
	C1539,348.1,1515.6,371.5,1487,371.5z"/>
<title>Figma.logo</title>
<desc>Created using Figma</desc>
<g>
	<path id="path0_fill" class="st1" d="M1307.5,300c22.1,0,40-17.9,40-40v-40h-40c-22.1,0-40,17.9-40,40
		C1267.5,282.1,1285.4,300,1307.5,300z"/>
	<path id="path1_fill" class="st2" d="M1267.5,180c0-22.1,17.9-40,40-40h40v80h-40C1285.4,220,1267.5,202.1,1267.5,180z"/>
	<path id="path1_fill_1_" class="st3" d="M1267.5,100c0-22.1,17.9-40,40-40h40v80h-40C1285.4,140,1267.5,122.1,1267.5,100z"/>
	<path id="path2_fill" class="st4" d="M1347.5,60h40c22.1,0,40,17.9,40,40s-17.9,40-40,40h-40V60z"/>
	<path id="path3_fill" class="st5" d="M1427.5,180c0,22.1-17.9,40-40,40s-40-17.9-40-40c0-22.1,17.9-40,40-40
		S1427.5,157.9,1427.5,180z"/>
</g>
</svg>
